<svg width="27" height="27" viewBox="0 0 27 27" fill="none" xmlns="http://www.w3.org/2000/svg">
<path d="M13.5 12.7267V12.473C13.5 11.6513 14.0076 11.2163 14.5151 10.8658C15.0105 10.5275 15.5058 10.0925 15.5058 9.29503C15.5058 8.18336 14.6117 7.28916 13.5 7.28916C12.3884 7.28916 11.4942 8.18336 11.4942 9.29503M13.4946 15.6146H13.5055M19.5417 21.2697H14.7084L9.33126 24.8463C8.53376 25.3779 7.45835 24.8101 7.45835 23.8434V21.2697C3.83335 21.2697 1.41669 18.853 1.41669 15.228V7.97792C1.41669 4.35292 3.83335 1.93625 7.45835 1.93625H19.5417C23.1667 1.93625 25.5834 4.35292 25.5834 7.97792V15.228C25.5834 18.853 23.1667 21.2697 19.5417 21.2697Z" stroke="white" stroke-width="2" stroke-linecap="round" stroke-linejoin="round"/>
</svg>
