<svg width="34" height="35" viewBox="0 0 34 35" fill="none" xmlns="http://www.w3.org/2000/svg">
<path d="M28.8734 15.8594L26.5625 13.4821V7.65625C26.5625 6.75391 25.8453 6.01562 24.9688 6.01562H23.375C22.4984 6.01562 21.7812 6.75391 21.7812 7.65625V8.56352L18.5938 5.28555C18.1587 4.86227 17.7602 4.375 17 4.375C16.2398 4.375 15.8413 4.86227 15.4062 5.28555L5.12656 15.8594C4.62931 16.3926 4.25 16.7814 4.25 17.5C4.25 18.4237 4.9385 19.1406 5.84375 19.1406H7.4375V28.9844C7.4375 29.8867 8.15469 30.625 9.03125 30.625H12.2188C13.099 30.625 13.8125 29.8905 13.8125 28.9844V22.4219C13.8125 21.5195 14.5297 20.7812 15.4062 20.7812H18.5938C19.4703 20.7812 20.1875 21.5195 20.1875 22.4219V28.9844C20.1875 29.8905 20.1042 30.625 20.9844 30.625H24.9688C25.8453 30.625 26.5625 29.8867 26.5625 28.9844V19.1406H28.1562C29.0615 19.1406 29.75 18.4237 29.75 17.5C29.75 16.7814 29.3707 16.3926 28.8734 15.8594Z" stroke="#FDF3F3" stroke-width="2" stroke-linejoin="round"/>
</svg>
