<svg width="29" height="29" viewBox="0 0 29 29" fill="none" xmlns="http://www.w3.org/2000/svg">
<path d="M16.9167 12.0833H22.6732C23.085 12.0833 23.4901 12.1886 23.8498 12.3892C24.2096 12.5898 24.5121 12.8789 24.7287 13.2293C24.9453 13.5796 25.0687 13.9795 25.0873 14.391C25.1059 14.8024 25.019 15.2118 24.8349 15.5803L20.6057 24.0386C20.405 24.4403 20.0962 24.7782 19.7142 25.0142C19.3322 25.2503 18.8919 25.3752 18.4428 25.375H13.5889C13.392 25.375 13.195 25.3508 13.0029 25.3025L8.45833 24.1667M16.9167 12.0833V6.04167C16.9167 5.40073 16.6621 4.78604 16.2088 4.33283C15.7556 3.87961 15.1409 3.625 14.5 3.625H14.3852C13.781 3.625 13.2917 4.11437 13.2917 4.71854C13.2917 5.58129 13.0367 6.42471 12.557 7.14246L8.45833 13.2917V24.1667M16.9167 12.0833H14.5M8.45833 24.1667H6.04167C5.40073 24.1667 4.78604 23.9121 4.33283 23.4588C3.87961 23.0056 3.625 22.3909 3.625 21.75V14.5C3.625 13.8591 3.87961 13.2444 4.33283 12.7912C4.78604 12.3379 5.40073 12.0833 6.04167 12.0833H9.0625" stroke="white" stroke-width="2" stroke-linecap="round" stroke-linejoin="round"/>
</svg>
