<svg width="29" height="29" viewBox="0 0 29 29" fill="none" xmlns="http://www.w3.org/2000/svg">
<path fill-rule="evenodd" clip-rule="evenodd" d="M16.5255 5.21549C16.009 3.09484 12.991 3.09484 12.4745 5.21549C12.3973 5.53416 12.2461 5.83011 12.033 6.07927C11.8198 6.32843 11.5509 6.52375 11.2481 6.64934C10.9452 6.77494 10.617 6.82725 10.2901 6.80203C9.96317 6.77681 9.64685 6.67477 9.36684 6.5042C7.50172 5.36775 5.36743 7.502 6.50391 9.36709C7.23799 10.5715 6.58683 12.143 5.21654 12.476C3.09449 12.9912 3.09449 16.0105 5.21654 16.5243C5.53529 16.6015 5.8313 16.7529 6.08046 16.9662C6.32962 17.1795 6.52489 17.4486 6.65037 17.7516C6.77584 18.0546 6.82798 18.383 6.80253 18.71C6.77708 19.0369 6.67476 19.3533 6.50391 19.6332C5.36743 21.4983 7.50172 23.6326 9.36684 22.4961C9.6468 22.3253 9.96315 22.223 10.2901 22.1975C10.6171 22.1721 10.9455 22.2242 11.2485 22.3497C11.5515 22.4752 11.8206 22.6704 12.0339 22.9196C12.2472 23.1687 12.3986 23.4647 12.4758 23.7835C12.991 25.9055 16.0103 25.9055 16.5242 23.7835C16.6017 23.4649 16.7532 23.1691 16.9665 22.9201C17.1799 22.6711 17.4489 22.476 17.7518 22.3506C18.0548 22.2251 18.383 22.1729 18.7099 22.1982C19.0368 22.2235 19.3531 22.3256 19.6332 22.4961C21.4983 23.6326 23.6326 21.4983 22.4961 19.6332C22.3255 19.3532 22.2235 19.0369 22.1982 18.71C22.1729 18.3831 22.2251 18.0549 22.3505 17.752C22.4759 17.449 22.6711 17.18 22.9201 16.9667C23.1691 16.7534 23.4649 16.6018 23.7835 16.5243C25.9055 16.0091 25.9055 12.9899 23.7835 12.476C23.4647 12.3988 23.1687 12.2474 22.9195 12.0341C22.6704 11.8209 22.4751 11.5518 22.3496 11.2487C22.2242 10.9457 22.172 10.6174 22.1975 10.2904C22.2229 9.96339 22.3252 9.64704 22.4961 9.36709C23.6326 7.502 21.4983 5.36775 19.6332 6.5042C19.3532 6.67505 19.0369 6.77737 18.7099 6.80282C18.3829 6.82827 18.0545 6.77614 17.7515 6.65066C17.4485 6.52519 17.1794 6.32992 16.9661 6.08076C16.7528 5.83161 16.6014 5.5356 16.5242 5.21685L16.5255 5.21549Z" stroke="white" stroke-width="2"/>
<path d="M16.9167 14.5C16.9167 15.8347 15.8347 16.9167 14.5 16.9167C13.1653 16.9167 12.0833 15.8347 12.0833 14.5C12.0833 13.1653 13.1653 12.0833 14.5 12.0833C15.8347 12.0833 16.9167 13.1653 16.9167 14.5Z" stroke="white" stroke-width="2"/>
</svg>
